<svg viewBox="0 0 256 256" height="160" width="160" version="1.1" xmlns="http://www.w3.org/2000/svg">
<style>@media (prefers-color-scheme:dark){.themed{fill:#888}}</style>
<path class="themed" d="m67 29-1 1-3 2-3 2-2 3-2 3h-2l-1-5-1-1-2-1-1 2-2 2-2 3-2 2-4 2h-5l-3 3-3 1-6 5L8 68l-3 4-4 5-1 4 2 1 2 1 1 2 1 3h3v1h3l3-1 6-1h4l4 2 2 3 1 3v4l3 7 1 3v21l2 5 1 5 2 7 2 5 3 4 3 4 3 3 2 1 3 1 10 2 3 1 1 1 3 3 3 3v26l-1 7-2 2-1 2-4 3-2 4v5h3l6-2v-3l2-3h4l1-1 1-2v-8l2-10 3-14 1-2h5l3 2 2 2v4l1 5v20l-2 2-2 2-3 1-2 4c0 1-2 2-1 4v2c3 0 6 0 9-2l1-3 2-2 3-1 2-1v-3l1-3v-14l2-6v-11l3-3 7-3 4-1h3l5-1 5-1 6-1 4 3 6 2 6 2h16l3-1h3l1 2 3 4v10l-2 7-1 5-4 6v1l-3 2-2 2-2 3v4h4l4-1 1-4 2-2 3-1 2-1v-2l1-4v-2l3-5 4-9 2-4 1-4v-3l-1-4v-3l2-3 3-2 4-2h3l7 3 3 2 2 2 3 4 2 4 3 5v17l-3 5-2 4-3 3-3 1-2 4-1 4 1 2 3-1 4-1v-3l3-2 3-1 2-1 1-3 4-15 4-10v-4l1-4-1-3-2-3c0-2-2-2-2-2v-6l9-5 1-2 2-4 1-6 2-5 2-9 1-10 1-5v-6l-2-5-1-4-2-5-4-5-4-6-9-13-3-3-6-7-5-2-6-2h-14l-3-1h-35l-3 1h-4l-14 3-4 1h-8l-4-2-6-1h-12l-9-6-6-4-5-4-6-2-3-1h-5l-6-1v-2l2-1 1-3-1-8z"/>
</svg>